<?xml version="1.0" encoding="utf-8" ?><svg xmlns="http://www.w3.org/2000/svg" xmlns:xlink="http://www.w3.org/1999/xlink" width="2761" height="1419" viewBox="0 0 2761 1419"><clipPath id="cl_4"><rect x="2.7656555e-05" y="-3.4332275e-05" width="2761.2524" height="1419.447"/></clipPath><g clip-path="url(#cl_4)"><path fill="#010101" transform="matrix(0.995405 0 0 0.995405 4.97705 -63.7059)" d="M2688.47 69.1134L2689.73 69.2281C2695.5 69.7011 2771.61 64.8347 2776.73 63.6051L2776.94 63.3256L2775.8 63.7818C2765.36 67.8849 2702.01 71.7636 2698.34 75.768C2683.76 77.0451 2664.21 80.3798 2649.44 82.5063C2614.43 87.4047 2579.51 92.9271 2544.7 99.0707C2424.87 119.594 2305.86 144.625 2187.91 174.109C1935.14 235.73 1688.31 319.55 1450.29 424.591C1347.73 469.741 1246.07 519.343 1147.98 573.57C1061.65 621.295 981.134 675.936 899.991 731.84C812.459 792.145 723.105 855.485 640.596 922.585C597.941 957.671 556.222 993.878 515.48 1031.17C477.874 1066.05 440.595 1102.97 402.901 1137.24L61.3006 1137.11C139.852 1054.17 234.166 974.834 324.848 905.038C360.068 877.93 402.369 854.54 438.932 828.369C491.022 791.085 541.379 751.359 595.381 716.992C1068.77 424.539 1610.65 238.87 2156.92 139.878C2333.04 108.921 2510.38 85.3121 2688.47 69.1134Z"/><path fill="#010101" transform="matrix(0.995405 0 0 0.995405 4.97705 -63.7059)" d="M894.759 804.52C901.7 805.717 943.784 838.733 951.88 844.78L1043.58 912.643C1144.77 986.551 1245.33 1061.32 1345.25 1136.94C1293.81 1138.42 1235.44 1137.01 1183.5 1136.98L1018.76 1137.07C923.316 1068.35 829.526 991.641 732.728 925.465C744.976 915.067 760.292 904.545 773.181 894.496C812.671 863.705 855.392 835.116 894.759 804.52Z"/><path fill="#010101" transform="matrix(0.995405 0 0 0.995405 4.97705 -63.7059)" d="M83.4194 453.149C95.2418 452.348 111.157 452.875 123.402 452.921L190.935 452.992L406.954 452.997C428.126 466.08 450.327 483.305 470.973 497.607C528.292 537.315 585.481 582.613 643.453 620.924C621.988 634.946 596.532 649.431 574.39 662.865C538.016 686.097 499.203 708.309 463.637 732.534C457.139 728.549 434.439 710.331 426.532 704.448C399.604 684.484 372.549 664.69 345.37 645.068L168.11 514.75C141.007 494.822 109.365 473.156 83.4194 453.149Z"/><path fill="#010101" transform="matrix(0.995405 0 0 0.995405 4.97705 -63.7059)" d="M567.906 1286.33C583.925 1285.86 623.41 1284.27 638.098 1288.19C678.008 1298.86 681.41 1349.65 643.908 1370.48C655.547 1390.9 665.054 1412.28 674.66 1433.72C666.151 1434.22 647.512 1437.51 643.032 1429.54C634.036 1411.7 626.059 1391.79 616.723 1374.54C608.565 1374.1 601.402 1374.32 593.258 1374.53C593.564 1394.37 593.501 1414.21 593.068 1434.05C584.238 1434.39 575.762 1434.23 566.933 1434.11C566.812 1431.22 566.451 1418.82 566.6 1416.87C567.7 1402.51 563.693 1292.39 567.906 1286.33ZM593.631 1351.28C606.849 1351.57 624.936 1353.52 636.12 1346.45C641.498 1340.96 642.447 1338.69 642.753 1330.87C643.803 1304.01 611.44 1308.66 593.684 1309.13C592.984 1322.1 593.524 1338.1 593.631 1351.28Z"/><path fill="#010101" transform="matrix(0.995405 0 0 0.995405 4.97705 -63.7059)" d="M1024.48 1286.72C1033.12 1286.28 1041.39 1286.42 1050.03 1286.5C1060.93 1304.7 1072.22 1322.39 1083.44 1340.37C1091.81 1353.78 1097.06 1366.55 1107.63 1378.58C1108.32 1368.77 1107.61 1353.88 1107.51 1343.72L1107.51 1286.72C1115.91 1286.47 1124.32 1286.37 1132.73 1286.4L1133.26 1377.88C1133.32 1395.62 1133.76 1416.54 1132.91 1434.14C1127.45 1434.27 1115.82 1434.24 1110.87 1434.97C1100.35 1429.05 1062.77 1350.03 1052.14 1342.42L1051.14 1343.36C1049.76 1350.58 1050.24 1367.68 1050.26 1375.93L1050.48 1433.85C1041.44 1434.24 1033.05 1434.07 1024.01 1433.91C1022.58 1387.63 1023.78 1333.25 1024.48 1286.72Z"/><path fill="#010101" transform="matrix(0.995405 0 0 0.995405 4.97705 -63.7059)" d="M436.421 1286.48C439.929 1286.48 440.67 1286.28 443.84 1287.52C449.776 1295.37 492.031 1417.76 496.451 1432.14C487.152 1432.44 477.845 1432.43 468.546 1432.12C465.915 1422.92 462.662 1414.3 459.381 1405.32C453.127 1404.83 442.818 1405.07 436.25 1405.03L408.933 1405.09C405.152 1412.88 402.273 1423.31 399.643 1431.72C390.134 1432.01 382.149 1431.97 372.639 1431.66C375.61 1418.84 384.115 1395.74 388.549 1382.78C399.447 1350.66 410.851 1318.71 422.757 1286.95C426.626 1286.57 432.407 1286.59 436.421 1286.48ZM414.634 1382.17L431.75 1382.4L452.417 1382.23C449.672 1372.98 438.628 1331.87 434.161 1327.57C429.721 1339.72 416.905 1372.05 414.634 1382.17Z"/><path fill="#010101" transform="matrix(0.995405 0 0 0.995405 4.97705 -63.7059)" d="M1298.21 1286.45C1307.72 1286.29 1317.23 1286.32 1326.74 1286.55C1311.81 1306.47 1296.11 1324.44 1280.92 1345.23C1296.39 1368.07 1316.39 1407.03 1331.51 1432.55C1321.16 1432.76 1311.35 1433.04 1300.99 1432.55C1289.26 1410.63 1275.76 1389.04 1262.69 1367.91C1256.22 1375.25 1250 1382.82 1244.05 1390.58C1241.91 1395.42 1242.79 1426.56 1242.82 1433.38C1234.06 1433.84 1225.28 1433.8 1216.52 1433.26C1216.12 1384.79 1216.87 1335.5 1216.85 1286.9C1225.5 1286.4 1233.96 1286.64 1242.61 1286.78C1243.36 1307.1 1242.6 1331.74 1242.47 1352.34C1255.89 1342.59 1289.04 1290.02 1298.21 1286.45Z"/><path fill="#010101" transform="matrix(0.995405 0 0 0.995405 4.97705 -63.7059)" d="M100.161 1284.4C131.902 1283.13 150.45 1293.18 154.8 1326.02C147.26 1326.58 138.705 1326.4 131.073 1326.42C125.975 1307.07 106.871 1297.63 89.3954 1311.67C85.8018 1314.55 83.47 1320.49 83.7943 1325.24C85.0325 1343.37 106.713 1345.89 120.518 1349.23C143.366 1354.56 156.111 1364.56 157.149 1389.11C157.688 1401.3 153.282 1413.19 144.929 1422.08C134.149 1433.42 121.237 1435.8 106.355 1436.17C73.5601 1435.76 59.9549 1420.93 54.0179 1390.49C62.0013 1389.81 71.7823 1390.05 79.919 1390.03C81.2512 1395.97 83.631 1404.03 88.8431 1407.79C104.707 1419.07 135.071 1413.47 130.714 1388.66C128.64 1376.3 114.387 1372.66 103.886 1370.5C81.8899 1365.9 60.1025 1358.96 58.5911 1332.89C56.8307 1302.54 71.4658 1289.03 100.161 1284.4Z"/><path fill="#010101" transform="matrix(0.995405 0 0 0.995405 4.97705 -63.7059)" d="M223.98 1286.37C252.137 1285.11 296.223 1285.92 324.876 1286.7L325.112 1309.31L287.518 1309.61L287.63 1396.72L287.601 1432.91C279.952 1433.35 269.236 1433 261.387 1432.95C260.661 1419.7 261.224 1401.08 261.277 1387.54C261.464 1361.56 261.408 1335.59 261.11 1309.62C250.735 1308.87 234.172 1309.39 223.34 1309.39C223.226 1303.47 222.736 1291.64 223.98 1286.37Z"/><path fill="#010101" transform="matrix(0.995405 0 0 0.995405 4.97705 -63.7059)" d="M748.162 1287.04C756.088 1286.4 765.529 1286.72 773.588 1286.79C774.243 1299.42 773.696 1315.92 773.714 1328.94L773.947 1410.86C795.63 1411.57 818.136 1410.59 840.167 1411.29C840.256 1416.49 841.11 1430.99 838.752 1434.48C812.499 1435.62 774.279 1435.12 747.69 1434.58C746.618 1389.41 747.111 1332.27 748.162 1287.04Z"/><path fill="#010101" transform="matrix(0.995405 0 0 0.995405 4.97705 -63.7059)" d="M914.641 1287.21C921.796 1286.14 933.748 1286.74 941.185 1287.06C942.053 1302.65 941.725 1322.22 941.809 1338.07C941.993 1369.87 941.982 1401.67 941.777 1433.47C935.774 1434.87 922.123 1434.26 915.479 1434.13C914.799 1416.76 915.425 1395.28 915.421 1377.65C915.353 1347.5 915.093 1317.35 914.641 1287.21Z"/><path fill="#FDFDFD" fill-opacity="0.011764706" transform="matrix(0.995405 0 0 0.995405 4.97705 -63.7059)" d="M1132.73 1286.4L1137.01 1286.96C1139.98 1291.33 1138.77 1421.98 1138.04 1435.49C1131.52 1435.51 1116.63 1435.86 1110.87 1434.97C1115.82 1434.24 1127.45 1434.27 1132.91 1434.14C1133.76 1416.54 1133.32 1395.62 1133.26 1377.88L1132.73 1286.4Z"/><path fill="#292929" fill-opacity="0.66666669" transform="matrix(0.995405 0 0 0.995405 4.97705 -63.7059)" d="M2786.71 61.0485C2793.38 61.4715 2799.07 61.5831 2805.76 61.5785C2801.55 63.5785 2793.46 62.5002 2791.33 64.7792C2780.41 65.9963 2702.23 76.4924 2698.34 75.768C2702.01 71.7636 2765.36 67.8849 2775.8 63.7818L2776.94 63.3256L2776.73 63.6051C2771.61 64.8347 2695.5 69.7011 2689.73 69.2281L2688.47 69.1134C2694.35 67.413 2715.47 66.1707 2722.4 65.6647L2786.71 61.0485Z"/></g></svg>