<?xml version="1.0" encoding="utf-8" ?><svg xmlns="http://www.w3.org/2000/svg" xmlns:xlink="http://www.w3.org/1999/xlink" width="3800" height="1064" viewBox="0 0 3800 1064"><clipPath id="cl_4"><path d="M0.453613 0L3800.45 1.62322L3800 1063.62L-3.37958e-05 1062L0.453613 0Z"/></clipPath><g clip-path="url(#cl_4)"><path transform="matrix(1 0.000427163 -0.000427163 1 0.453613 0)" d="M887.083 625.035C901.996 520.276 943.639 421.643 1029.91 355.82C1110.44 296.326 1207.62 274.415 1306.34 287.672C1490.26 312.37 1609 468.251 1611.74 649.022C1613.11 739.652 1589.71 737.436 1508.03 737.338L1422.68 737.29L1196.87 737.338C1158.7 737.357 1117.03 736.478 1079.23 737.574C1088.13 792.445 1104.03 835.713 1150.27 869.787C1217.49 919.523 1336.15 914.365 1388.38 844.892C1405.12 822.628 1413.97 806.604 1445.21 806.44C1482.4 806.245 1520.58 805.43 1557.73 806.915C1574.22 807.573 1585.18 816.153 1587.15 832.573C1589.53 870.11 1566.98 908.858 1545.27 937.883C1430.92 1085.06 1179.21 1109.38 1034.34 995.491C950.188 929.341 901.919 835.3 888.295 731.507C887.552 726.081 886.996 720.632 886.626 715.168C884.94 697.924 884.552 680.577 885.468 663.274C886 652.332 887.444 635.344 887.083 625.035ZM1082.13 589.642C1141.89 590.377 1201.73 589.767 1261.5 589.714C1314.09 589.73 1368.27 591.389 1420.66 589.637C1415.12 544.743 1396.91 501.801 1360.55 473.281C1327.17 447.094 1284.31 438.997 1242.85 439.446C1196.94 442.266 1154.39 457.016 1123.23 492.18C1099.1 519.416 1085.84 553.628 1082.13 589.642Z"/><path transform="matrix(1 0.000427163 -0.000427163 1 0.453613 0)" d="M1948.77 284.419C1952.35 284.194 1955.93 284.029 1959.51 283.923C2055.27 280.967 2151.99 303.251 2225.17 369.609C2255.22 398.644 2279.13 438.683 2280.8 481.261C2282.02 494.258 2276.17 516.973 2261.07 520.537C2233.27 527.093 2199.82 523.188 2171.34 524.266C2154.29 524.911 2128.34 523.462 2117.25 509.26C2107.47 496.727 2101.23 479.881 2089.37 468.54C2059.06 439.078 2021.12 431.047 1980.05 430.79C1933.47 430.498 1858.77 444.689 1860.76 505.303C1861.04 513.792 1861.45 531.21 1868.08 537.047C1887.15 553.85 1914.77 560.604 1938.65 567.81C1988.95 581.33 2039.21 594.337 2089.75 607.074C2171.94 627.79 2253.97 659.88 2288.53 744.547C2321.42 825.104 2301.56 931.963 2232.76 988.556C2161.07 1047.53 2069.44 1066.9 1978.55 1067.07C1885.16 1066.28 1789.37 1040.1 1718.23 976.585C1681.86 943.938 1656.5 903.237 1653.73 853.533C1652.13 824.824 1665.67 806.234 1695.69 806.088C1723.65 805.952 1751.56 806.514 1779.51 806.076C1797.54 805.792 1815.29 807.916 1827.1 823.274C1839.38 839.134 1846.78 857.616 1862.08 871.196C1899.55 904.471 1951.06 912.775 1999.59 910.507C2033.64 909.47 2070.95 901.125 2095.22 875.466C2110.01 859.482 2116.68 823.078 2102.36 804.746C2082.17 778.912 2026.41 766.692 1995.5 759.14C1962.58 751.318 1929.76 743.066 1897.05 734.386C1838.78 718.773 1785.91 704.528 1738.66 663.866C1698.98 629.937 1674.37 587.971 1670.53 535.467C1658.19 366.464 1800.09 294.751 1948.77 284.419Z"/><path transform="matrix(1 0.000427163 -0.000427163 1 0.453613 0)" d="M2399.45 311.063C2398.96 256.725 2398.81 202.384 2399 148.044C2399 131.616 2397.86 83.7525 2400.55 70.0921C2402.95 57.7581 2408.88 46.3883 2417.63 37.3719C2429.4 25.3381 2444.63 20.2124 2461.48 20.3623C2483.11 20.5441 2504.91 20.3851 2526.54 20.3371C2603.1 20.1669 2590.65 91.4843 2590.82 143.882L2590.9 311.444C2619.95 312.532 2655.66 311.529 2684.57 311.373C2730.7 311.125 2763.2 307.784 2759.27 367.915C2757.41 391.195 2764.99 415.885 2750 436.076C2733.95 457.699 2702.97 453.141 2678.66 453.16L2608.71 453.319C2603.01 453.304 2595.8 453.096 2590.25 453.423L2590.82 646.267L2590.55 729.59C2590.33 762.06 2587.31 800.078 2596.23 830.734C2597.18 839.663 2603.82 851.874 2608.66 859.373C2647.36 919.232 2714.42 885.055 2742.64 912.582C2759.47 929.002 2755.55 962.397 2755.6 984.155C2755.64 1003.2 2757.71 1026.01 2742.92 1040.55C2724.51 1058.63 2685.51 1053.45 2661.21 1053.4C2587.15 1053.24 2517.51 1038.32 2463.77 984.11C2433.89 953.973 2415.18 915.508 2405.9 874.324C2398.34 840.738 2399.04 806.091 2398.98 771.877L2398.87 690.729L2398.1 454.088C2377.64 452.641 2347.1 458.863 2330.5 444.345C2316.44 432.049 2314.59 410.551 2314.96 392.836C2315.44 370.036 2311.47 341.972 2327.78 323.291C2342.78 306.599 2378.4 311.888 2399.45 311.063Z"/><path transform="matrix(1 0.000427163 -0.000427163 1 0.453613 0)" d="M2814.49 543.496C2816.77 431.553 2815.2 321.71 2815.27 209.92L2814.53 122.891C2814.5 93.4332 2811.18 59.3416 2834.11 37.2291C2854.59 16.7243 2881.81 20.0759 2908.34 20.5742C2937.56 21.1228 2970.15 14.39 2992.54 38.3688C3012.33 59.5614 3009.27 87.6004 3009.33 114.517L3009.26 181.618L3008.97 392.815L3008.79 772.131L3008.99 912.369C3009.03 939.785 3009.25 967.583 3008.57 994.984C3008.15 1011.52 3002.98 1027.27 2990.37 1038.7C2983.62 1044.8 2975.44 1049.12 2966.59 1051.25C2948.05 1055.79 2924.66 1053.05 2905.35 1053.48C2872.17 1054.22 2834.8 1056.59 2820.71 1018.56C2819.79 1016.08 2818.71 1012.92 2817.7 1010.56C2817.42 1002.07 2816.29 993.143 2816.03 983.897C2814.79 922.397 2814.27 860.885 2814.45 799.373L2814.49 543.496Z"/><path fill="#EFEFEF" fill-opacity="0.011764706" transform="matrix(1 0.000427163 -0.000427163 1 0.453613 0)" d="M2817.7 1010.56L2816.16 1010.46C2815.52 1007.97 2812.67 1005.35 2812.39 1004.05C2807.62 981.368 2809.32 945.426 2808.94 922.937C2808.05 836.987 2807.82 751.03 2808.27 665.076L2808.25 586.182C2808.25 573.955 2807.47 540.487 2810.28 530.953L2813.52 530.158L2813.32 529.389C2815.23 533.453 2814.61 538.889 2814.49 543.496L2814.45 799.373C2814.27 860.885 2814.79 922.397 2816.03 983.897C2816.29 993.143 2817.42 1002.07 2817.7 1010.56Z"/><path fill="#EFEFEF" fill-opacity="0.011764706" transform="matrix(1 0.000427163 -0.000427163 1 0.453613 0)" d="M2590.25 453.423C2595.8 453.096 2603.01 453.304 2608.71 453.319C2604.61 456.011 2600.67 453.09 2596.61 455.515C2597.42 494.061 2598.98 824.023 2596.23 830.734C2587.31 800.078 2590.33 762.06 2590.55 729.59L2590.82 646.267L2590.25 453.423Z"/><path fill="#EFEFEF" fill-opacity="0.011764706" transform="matrix(1 0.000427163 -0.000427163 1 0.453613 0)" d="M886.626 715.168L885.984 716.549L884.661 716.886L882.521 715.191C875.672 701.224 877.285 636.572 887.083 625.035C887.444 635.344 886 652.332 885.468 663.274C884.552 680.577 884.94 697.924 886.626 715.168Z"/><path transform="matrix(1 0.000427163 -0.000427163 1 0.453613 0)" d="M0 70.6566C2.56584 67.6114 6.08566 58.6291 7.82888 54.5401C25.9782 11.9677 70.1184 15.7168 108.623 16.3619C136.454 16.8281 173.222 13.7611 200.189 20.0945C213.542 23.2018 226.067 29.1542 236.909 37.5453C261.832 56.6042 284.347 106.905 299.96 135.728L370.353 265.316C424.722 365.876 481.392 466.036 535.607 566.748C555.44 603.591 573.551 641.22 595.589 677.189C601.283 686.483 608.863 703.471 614.418 711.272C614.749 714.431 620.508 723.37 623.629 725.127L625 724.435C627.395 716.984 625.834 570.972 625.968 554.067C626.742 456.981 626.848 359.891 626.283 262.804C625.776 219.943 625.596 177.079 625.744 134.216C625.769 119.038 624.858 82.3339 627.957 68.9642C634.585 40.4433 661.031 20.1299 690.478 20.2516C732.145 20.4238 773.924 20.4972 815.585 20.5376L1062.18 20.4612L1839.8 20.2987L2127.84 20.4313L2199.36 20.3816C2221.53 20.3674 2253.91 15.5998 2266.57 37.18C2268.62 41.0269 2273.31 48.7375 2273.53 52.8602C2274.93 79.1176 2276.01 106.32 2274.92 132.644C2272.71 186.418 2225.15 177.152 2188.48 177.112L2102.58 177.026L1842.1 176.994L1041.44 177.111L891.97 177.11C870.797 177.113 833.895 176.035 814.109 177.533C813.543 296.449 813.635 415.367 814.385 534.282L814.316 729.096C814.818 789.549 814.734 850.006 814.064 910.457L813.855 964.855C813.808 976.274 813.661 986.956 813.031 998.214C811.604 1023.7 792.648 1045.35 767.688 1050.87C747.2 1054.96 724.876 1053.1 704.041 1053.2C687.212 1053.28 669.221 1053.67 652.71 1053.2C592.336 1051.52 567.198 1019.59 541.218 970.026C527.981 944.772 511.759 916.177 497.75 890.791L275.419 484.772C255.789 449.216 237.467 411.475 216.88 376.245C208.302 361.565 203.024 348.653 192.242 335.2C191.034 491.713 190.97 648.233 192.05 804.748L191.965 941.558C191.852 972.228 198.016 1014.49 174.081 1037.05C146.776 1062.78 100.047 1050.53 65.9597 1053.2C48.9794 1054.44 27.7085 1046.42 17.1662 1034.84C6.9468 1024.91 5.08851 1011.57 0 1006.42L0 70.6566Z"/><path transform="matrix(1 0.000427163 -0.000427163 1 0.453613 0)" d="M3647.33 1019.14C3495 1098.83 3292.05 1082.56 3177.02 946.534C3104.71 861.022 3073.82 756.884 3080.79 645.813C3087.37 540.991 3128.91 442.138 3207.34 370.871C3282.04 303.95 3383.79 279.396 3481.66 284.337C3600.18 290.32 3694.82 347.856 3754.62 449.733C3767.08 470.951 3775.8 491.466 3785.58 513.771C3785.72 513.91 3785.86 514.05 3786 514.189L3786 726.684C3782.25 728.647 3776.57 731.851 3772.77 733.217C3746.41 738.651 3728.01 737.336 3701.32 737.326L3629.15 737.29L3396.49 737.466C3360.77 737.511 3310.38 736.062 3275.52 737.967C3281.8 789.267 3299.95 834.294 3341.49 866.951C3408.92 919.951 3530.2 915.97 3583.78 844.552C3596.73 827.283 3608.84 808.957 3632.58 807.1C3657.37 805.161 3682.98 806.15 3707.9 805.957C3725.22 805.822 3742.99 805.418 3760.16 807.126C3764.99 807.718 3769.26 809.718 3773.07 812.618C3779.99 817.269 3782.66 828.143 3786 831.992L3786 849.155C3783.1 853.415 3774.93 880.437 3771.65 887.968C3758.2 918.687 3738.72 946.396 3714.37 969.455C3706.7 976.764 3699.3 982.461 3691.58 989.383C3677.76 1000.62 3662.95 1010.57 3647.33 1019.14ZM3277.66 590.302L3449.75 590.248C3505.3 590.218 3561.17 591.46 3616.69 589.949C3608.01 540.832 3591.02 497.943 3548.84 468.492C3516.94 446.212 3481.97 438.439 3443.48 439.482C3395.26 441.823 3353.01 455.071 3319.81 491.755C3294.11 520.157 3282.87 552.839 3277.66 590.302Z"/><path fill="gray" transform="matrix(1 0.000427163 -0.000427163 1 0.453613 0)" d="M3647.33 1019.14C3641.18 1014.99 3633.8 1012.37 3626.93 1009.11L3626.46 1007.58C3629.28 1004.58 3633.42 1004.35 3637.29 1002.57C3658.36 992.898 3664.51 980.315 3672.71 960.9L3674.64 960.148C3677.27 962.68 3678.1 969.788 3681.23 975.001C3685.23 981.667 3686.6 983.586 3691.58 989.383C3677.76 1000.62 3662.95 1010.57 3647.33 1019.14Z"/><path transform="matrix(1 0.000427163 -0.000427163 1 0.453613 0)" d="M3739.51 0L3786 0L3786 152.648C3784.87 153.358 3776.13 163.296 3774.07 165.374C3760.96 178.624 3745.21 177.238 3728.14 177.221C3715.56 177.209 3703.21 177.088 3690.75 177.08L3565.66 177.115L3298.74 177.233L3210.45 177.265C3194.58 177.269 3178.75 177.356 3162.87 177.085C3145.16 176.784 3133.47 165.968 3130.31 148.736C3128.03 138.549 3129.27 128.141 3128.83 117.924C3127.88 95.6109 3130.8 71.436 3156.76 65.4646C3173.67 61.5736 3192.52 60.1163 3210.19 58.195L3299.32 48.6032L3587.85 16.9373L3685.7 6.37541C3701.5 4.66963 3724.44 2.87694 3739.51 0Z"/><path fill="#EFEFEF" fill-opacity="0.011764706" transform="matrix(1 0.000427163 -0.000427163 1 0.453613 0)" d="M614.418 711.272C616.761 693.606 618.992 669.92 619.494 652.227C620.404 620.163 619.46 588.024 619.565 555.951C619.662 526.308 620.84 496.674 620.794 467.028C620.724 422.328 617.154 80.7211 620.7 73.4309C622.304 70.1338 624.817 69.7887 627.957 68.9642C624.858 82.3339 625.769 119.038 625.744 134.216C625.596 177.079 625.776 219.943 626.283 262.804C626.848 359.891 626.742 456.981 625.968 554.067C625.834 570.972 627.395 716.984 625 724.435L623.629 725.127C620.508 723.37 614.749 714.431 614.418 711.272Z"/><path fill="#EFEFEF" fill-opacity="0.011764706" transform="matrix(1 0.000427163 -0.000427163 1 0.453613 0)" d="M3786 726.684L3786 810.266C3785.84 810.179 3785.68 810.093 3785.52 810.006C3785.25 810.053 3782.8 807.711 3782.8 807.709C3778.56 790.83 3783.76 747.978 3780.74 733.474L3772.77 733.217C3776.57 731.851 3782.25 728.647 3786 726.684Z"/></g></svg>